<svg xmlns="http://www.w3.org/2000/svg" viewBox="0 0 16 16" shape-rendering="crispEdges">
  <!-- Hat -->
  <rect x="5" y="0" width="6" height="2" fill="#8B4513"/>
  <rect x="4" y="2" width="8" height="1" fill="#A0522D"/>
  <!-- Head -->
  <rect x="5" y="3" width="6" height="4" fill="#FDBCB4"/>
  <!-- Eyes -->
  <rect x="6" y="4" width="1" height="1" fill="#2c1810"/>
  <rect x="9" y="4" width="1" height="1" fill="#2c1810"/>
  <!-- Mouth -->
  <rect x="7" y="6" width="2" height="1" fill="#c0392b"/>
  <!-- Body / overalls -->
  <rect x="4" y="7" width="8" height="5" fill="#2874a6"/>
  <!-- Overall straps -->
  <rect x="5" y="7" width="1" height="2" fill="#d4a642"/>
  <rect x="10" y="7" width="1" height="2" fill="#d4a642"/>
  <!-- Belt -->
  <rect x="4" y="9" width="8" height="1" fill="#5a3e0a"/>
  <!-- Arms -->
  <rect x="3" y="8" width="1" height="3" fill="#FDBCB4"/>
  <rect x="12" y="8" width="1" height="3" fill="#FDBCB4"/>
  <!-- Legs -->
  <rect x="5" y="12" width="2" height="2" fill="#1a5276"/>
  <rect x="9" y="12" width="2" height="2" fill="#1a5276"/>
  <!-- Boots -->
  <rect x="4" y="14" width="3" height="2" fill="#4a2e00"/>
  <rect x="9" y="14" width="3" height="2" fill="#4a2e00"/>
</svg>
